<svg xmlns="http://www.w3.org/2000/svg" viewBox="0 0 640 720" role="img" aria-labelledby="title desc">
  <title id="title">Foto provisória de André Fernandes</title>
  <desc id="desc">Composição provisória para a seção sobre o especialista</desc>
  <defs>
    <linearGradient id="bg" x1="40" y1="40" x2="610" y2="690" gradientUnits="userSpaceOnUse"><stop stop-color="#163F83"/><stop offset="1" stop-color="#07152F"/></linearGradient>
    <pattern id="p" width="38" height="38" patternUnits="userSpaceOnUse"><path d="M38 0H0v38" fill="none" stroke="#fff" stroke-opacity=".035"/></pattern>
  </defs>
  <rect width="640" height="720" fill="url(#bg)"/>
  <rect width="640" height="720" fill="url(#p)"/>
  <circle cx="320" cy="246" r="112" fill="#A9BBD1"/>
  <path d="M105 720c15-226 88-348 215-348 128 0 201 123 216 348H105Z" fill="#7E91AA"/>
  <path d="m249 382 71 104 73-104 43 44-35 294H239l-35-294 45-44Z" fill="#E9EEF5"/>
  <path d="M210 229c4-103 48-158 116-158 69 0 119 56 119 162-34-64-75-83-120-76-45 7-74 41-115 72Z" fill="#1C2C45"/>
  <path d="M34 44h150" stroke="#4F83DF" stroke-width="3"/><path d="M34 55h92" stroke="#fff" stroke-opacity=".5"/>
  <text x="34" y="91" fill="#DCE6F5" font-family="Arial, sans-serif" font-size="13" letter-spacing="3">IMAGEM PROVISÓRIA</text>
</svg>
