<svg xmlns="http://www.w3.org/2000/svg" viewBox="0 0 600 720" role="img" aria-labelledby="title desc">
  <title id="title">Foto provisória do especialista</title>
  <desc id="desc">Silhueta reservada para a foto de André Fernandes no hero</desc>
  <defs>
    <linearGradient id="bg" x1="70" y1="70" x2="550" y2="700" gradientUnits="userSpaceOnUse"><stop stop-color="#245FC8" stop-opacity=".28"/><stop offset="1" stop-color="#07152F" stop-opacity="0"/></linearGradient>
    <linearGradient id="body" x1="300" y1="300" x2="300" y2="720" gradientUnits="userSpaceOnUse"><stop stop-color="#B7C6DB"/><stop offset="1" stop-color="#5D708D"/></linearGradient>
  </defs>
  <circle cx="346" cy="328" r="260" fill="url(#bg)"/>
  <circle cx="315" cy="205" r="97" fill="#A9BBD1"/>
  <path d="M130 720c11-203 64-322 185-322s181 120 194 322H130Z" fill="url(#body)"/>
  <path d="m245 404 70 98 73-98 33 30-34 286H241l-30-286 34-30Z" fill="#E8EDF4"/>
  <path d="m286 463 29 39 30-40 18 258h-96l19-257Z" fill="#164DAE"/>
  <path d="M217 185c6-83 49-128 107-128 65 0 108 46 110 133-31-53-66-69-103-64-42 7-67 34-114 59Z" fill="#23324A"/>
  <rect x="179" y="659" width="280" height="42" rx="21" fill="#07152F" fill-opacity=".66" stroke="#A6B6CD" stroke-opacity=".35"/>
  <text x="319" y="686" fill="#E8EEF7" font-family="Arial, sans-serif" font-size="15" text-anchor="middle" letter-spacing="2">FOTO DO HERO</text>
</svg>
